# xmcd
#
# Track frame offsets:
#	150
#	13836
#	24998
#	33630
#	45171
#	55105
#	64111
#	75653
#	86080
#	96937
#	116478
#	126242
#	134033
#	144957
#	157610
#	172234
#	183113
#	195078
#	211565
#	226202
#	250173
#	258991
#	270224
#	279497
#	292715
#	305299
#
# Disc length: 4211 seconds
#
# Revision: 1
# Processed by: cddbd v1.5.2PL0 Copyright (c) Steve Scherf et al.
# Submitted via: EZCDAudioConverter 1.3.4.1
#
DISCID=4e10711a
DTITLE=V/A - Flipper Psychout
DYEAR=2010
DGENRE=
TTITLE0=Megattera
TTITLE1=Omnifarius
TTITLE2=Save Up
TTITLE3=Spleen
TTITLE4=Magia
TTITLE5=Acromatic
TTITLE6=Ready Money
TTITLE7=Lustful
TTITLE8=Pledge
TTITLE9=Marsuino
TTITLE10=Trip
TTITLE11=Orca
TTITLE12=Ticklish
TTITLE13=Castello Stregato
TTITLE14=Lamantino
TTITLE15=La Via Della Droga
TTITLE16=Likewise
TTITLE17=Stenella Dubia
TTITLE18=Chase
TTITLE19=Balenottera
TTITLE20=Asincronia
TTITLE21=Globicefalo
TTITLE22=Suspence Magico N° 1
TTITLE23=Tradimento
TTITLE24=Overcraft
TTITLE25=Lo Strangolatore Di Boston
EXTD=
EXTT0=
EXTT1=
EXTT2=
EXTT3=
EXTT4=
EXTT5=
EXTT6=
EXTT7=
EXTT8=
EXTT9=
EXTT10=
EXTT11=
EXTT12=
EXTT13=
EXTT14=
EXTT15=
EXTT16=
EXTT17=
EXTT18=
EXTT19=
EXTT20=
EXTT21=
EXTT22=
EXTT23=
EXTT24=
EXTT25=
PLAYORDER=
